#tb 0: 1/25
#media_type 0: video
#codec_id 0: rawvideo
#dimensions 0: 720x480
#sar 0: 1/1
0,       3312,       3312,        1,  1382400, 0xc637b893
0,       3684,       3684,        1,  1382400, 0x4c2960ca
0,       4520,       4520,        1,  1382400, 0x5fa18966
0,       4586,       4586,        1,  1382400, 0x55f4b7b1
0,       4648,       4648,        1,  1382400, 0xdfa4cf32
0,       4717,       4717,        1,  1382400, 0x35023df8
0,       4750,       4750,        1,  1382400, 0xed933219
0,       4993,       4993,        1,  1382400, 0x1b26389a
0,       5029,       5029,        1,  1382400, 0xf0c7028b
0,       5070,       5070,        1,  1382400, 0x395f521d
0,       5119,       5119,        1,  1382400, 0x1ea87415
0,       5170,       5170,        1,  1382400, 0xc6effdc1
0,       5218,       5218,        1,  1382400, 0xba6846f8
0,       5251,       5251,        1,  1382400, 0x033c5d5b
0,       5291,       5291,        1,  1382400, 0xef5abf66
0,       5360,       5360,        1,  1382400, 0xec747954
0,       5431,       5431,        1,  1382400, 0xfa34bcaf
0,       5491,       5491,        1,  1382400, 0x8b7a709b
0,       5588,       5588,        1,  1382400, 0xc333382f
0,       5688,       5688,        1,  1382400, 0xabe5dfcf
0,       5772,       5772,        1,  1382400, 0x56948101
0,       5828,       5828,        1,  1382400, 0xb747834a
0,       5933,       5933,        1,  1382400, 0x3448baad
0,       6003,       6003,        1,  1382400, 0xaabe4f37
0,       6839,       6839,        1,  1382400, 0x8a48cd6f
0,       7386,       7386,        1,  1382400, 0x49518c43
0,       7501,       7501,        1,  1382400, 0x4a72fa21
0,       7551,       7551,        1,  1382400, 0xa82f7de8
0,       7605,       7605,        1,  1382400, 0xeba0b5f3
0,       7649,       7649,        1,  1382400, 0xd6a91770
0,       7699,       7699,        1,  1382400, 0x222f827c
0,       8032,       8032,        1,  1382400, 0x3270f4ff
0,       8084,       8084,        1,  1382400, 0x40813cb3
0,       8116,       8116,        1,  1382400, 0x9d8fde41
0,       8180,       8180,        1,  1382400, 0xc6d7a701
0,       8209,       8209,        1,  1382400, 0x9d45f2dc
0,       8249,       8249,        1,  1382400, 0x8525ee40
0,       8281,       8281,        1,  1382400, 0x5b26b98b
0,       8323,       8323,        1,  1382400, 0x51be311f
0,       8565,       8565,        1,  1382400, 0x00a4f2a3
0,       8669,       8669,        1,  1382400, 0x40a445e8
0,       8941,       8941,        1,  1382400, 0x43ef5128
0,       8996,       8996,        1,  1382400, 0x3c3e3819
